HIERARCHY
ROOT SpineBase
{
  OFFSET 0.000000 0.000000 0.000000
  CHANNELS 6 Xposition Yposition Zposition Zrotation Xrotation Yrotation
  JOINT SpineMid
  {
    OFFSET 0.000000 32.568030 0.000000
    CHANNELS 3 Zrotation Xrotation Yrotation
    JOINT SpineShoulder
    {
      OFFSET 0.115946 24.168851 -0.716757
      CHANNELS 3 Zrotation Xrotation Yrotation
      JOINT Neck
      {
        OFFSET 0.052832 7.999378 -0.555991
        CHANNELS 3 Zrotation Xrotation Yrotation
        JOINT Head
        {
          OFFSET 5.607708 12.019441 4.954087
          CHANNELS 3 Zrotation Xrotation Yrotation
          End Site
          {
            OFFSET 0 0 0
          }
        }
      }
      JOINT ShoulderLeft
      {
        OFFSET -12.214565 -2.535313 -10.742789
        CHANNELS 3 Zrotation Xrotation Yrotation
        JOINT ElbowLeft
        {
          OFFSET -7.121511 -25.173989 -4.742814
          CHANNELS 3 Zrotation Xrotation Yrotation
          JOINT WristLeft
          {
            OFFSET -1.544017 -25.039725 -5.102326
            CHANNELS 3 Zrotation Xrotation Yrotation
            JOINT HandLeft
            {
              OFFSET -0.123594 -8.583688 -0.608314
              CHANNELS 3 Zrotation Xrotation Yrotation
              JOINT HandTipLeft
              {
                OFFSET 1.058099 -6.991764 -1.486851
                CHANNELS 3 Zrotation Xrotation Yrotation
                End Site
                {
                  OFFSET 0 0 0
                }
              }
              JOINT ThumbLeft
              {
                OFFSET -1.687346 -2.026059 -2.743501
                CHANNELS 3 Zrotation Xrotation Yrotation
                End Site
                {
                  OFFSET 0 0 0
                }
              }
            }
          }
        }
      }
      JOINT ShoulderRight
      {
        OFFSET 12.891946 -3.141170 12.712998
        CHANNELS 3 Zrotation Xrotation Yrotation
        JOINT ElbowRight
        {
          OFFSET -1.735549 -22.051930 8.199137
          CHANNELS 3 Zrotation Xrotation Yrotation
          JOINT WristRight
          {
            OFFSET 7.304749 -21.205592 -13.963574
            CHANNELS 3 Zrotation Xrotation Yrotation
            JOINT HandRight
            {
              OFFSET 5.385878 -0.062995 1.194483
              CHANNELS 3 Zrotation Xrotation Yrotation
              JOINT HandTipRight
              {
                OFFSET 4.173682 -3.395029 -2.123784
                CHANNELS 3 Zrotation Xrotation Yrotation
                End Site
                {
                  OFFSET 0 0 0
                }
              }
              JOINT ThumbRight
              {
                OFFSET -3.168573 0.035119 -7.262461
                CHANNELS 3 Zrotation Xrotation Yrotation
                End Site
                {
                  OFFSET 0 0 0
                }
              }
            }
          }
        }
      }
    }
  }
  JOINT HipLeft
  {
    OFFSET -5.056202 1.557326 -7.532651
    CHANNELS 3 Zrotation Xrotation Yrotation
    JOINT KneeLeft
    {
      OFFSET -10.614082 -33.635108 -3.731730
      CHANNELS 3 Zrotation Xrotation Yrotation
      JOINT AnkleLeft
      {
        OFFSET -8.417742 -38.273930 4.495751
        CHANNELS 3 Zrotation Xrotation Yrotation
        JOINT FootLeft
        {
          OFFSET 0.290876 -7.272334 -7.269451
          CHANNELS 3 Zrotation Xrotation Yrotation
          End Site
          {
            OFFSET 0 0 0
          }
        }
      }
    }
  }
  JOINT HipRight
  {
    OFFSET 5.571660 0.176234 0.438659
    CHANNELS 3 Zrotation Xrotation Yrotation
    JOINT KneeRight
    {
      OFFSET -3.041523 -36.502614 4.419850
      CHANNELS 3 Zrotation Xrotation Yrotation
      JOINT AnkleRight
      {
        OFFSET -5.918015 -35.854938 12.512099
        CHANNELS 3 Zrotation Xrotation Yrotation
        JOINT FootRight
        {
          OFFSET 1.692745 -7.920267 -5.254048
          CHANNELS 3 Zrotation Xrotation Yrotation
          End Site
          {
            OFFSET 0 0 0
          }
        }
      }
    }
  }
}
MOTION
Frames: 9
Frame Time: 0.033333
-24.581560 80.551878 346.730254 -0.000000 0.000000 -36.871322 -0.000000 0.000000 36.871322 -0.000000 0.000000 0.000000 -0.000000 0.000000 0.000000 0.000000 0.000000 0.000000 -0.000000 0.000000 0.000000 -0.000000 0.000000 0.000000 -0.000000 0.000000 0.000000 -0.000000 0.000000 0.000000 0.000000 0.000000 0.000000 0.000000 0.000000 0.000000 -0.000000 0.000000 0.000000 -0.000000 0.000000 0.000000 -0.000000 0.000000 0.000000 -0.000000 0.000000 0.000000 0.000000 0.000000 0.000000 0.000000 0.000000 0.000000 -0.000000 0.000000 36.871322 -0.000000 0.000000 0.000000 -0.000000 0.000000 0.000000 0.000000 0.000000 0.000000 -0.000000 0.000000 36.871322 -0.000000 0.000000 0.000000 -0.000000 0.000000 0.000000 0.000000 0.000000 0.000000
-24.627404 80.536341 346.897707 -0.052675 0.023769 -37.008893 0.056370 0.012726 37.008898 -0.000000 0.000000 0.000000 -0.000000 0.000000 0.000000 0.000000 0.000000 0.000000 -0.000000 0.000000 0.000000 -0.000000 0.000000 0.000000 1.237530 1.230619 -0.118645 -1.089377 0.437885 0.313576 0.000000 0.000000 0.000000 0.000000 0.000000 0.000000 -0.000000 0.000000 0.000000 -0.000000 0.000000 0.000000 1.798222 -0.319835 2.822303 -0.629491 1.215075 -2.466625 0.000000 0.000000 0.000000 0.000000 0.000000 0.000000 0.056370 0.012726 37.008898 -0.000000 0.000000 0.000000 -0.000000 0.000000 0.000000 0.000000 0.000000 0.000000 0.056370 0.012726 37.008898 -0.000000 0.000000 0.000000 0.254485 1.842548 0.218485 0.000000 0.000000 0.000000
-24.665000 80.526358 347.057418 -0.094814 0.049423 -37.149666 0.105419 0.017865 37.149691 -0.000000 0.000000 0.000000 -0.000000 0.000000 0.000000 0.000000 0.000000 0.000000 -0.000000 0.000000 0.000000 -0.000000 0.000000 0.000000 2.359367 2.296073 -0.247303 -2.107357 0.761294 0.563833 0.000000 0.000000 0.000000 0.000000 0.000000 0.000000 -0.000000 0.000000 0.000000 -0.000000 0.000000 0.000000 2.742088 -0.405166 5.575914 -0.505925 2.177211 -4.791749 0.000000 0.000000 0.000000 0.000000 0.000000 0.000000 0.105419 0.017865 37.149691 -0.000000 0.000000 0.000000 -0.000000 0.000000 0.000000 0.000000 0.000000 0.000000 0.105419 0.017865 37.149691 -0.000000 0.000000 0.000000 0.503172 3.373625 0.365145 0.000000 0.000000 0.000000
-24.694348 80.521931 347.209386 -0.126436 0.076963 -37.293768 0.147217 0.015380 37.293833 -0.000000 0.000000 0.000000 -0.000000 0.000000 0.000000 0.000000 0.000000 0.000000 -0.000000 0.000000 0.000000 -0.000000 0.000000 0.000000 3.357159 3.187513 -0.376742 -3.047414 0.921406 0.750166 0.000000 0.000000 0.000000 0.000000 0.000000 0.000000 -0.000000 0.000000 0.000000 -0.000000 0.000000 0.000000 2.851926 -0.324150 8.276898 0.304766 2.854505 -6.990930 0.000000 0.000000 0.000000 0.000000 0.000000 0.000000 0.147217 0.015380 37.293833 -0.000000 0.000000 0.000000 -0.000000 0.000000 0.000000 0.000000 0.000000 0.000000 0.147217 0.015380 37.293833 -0.000000 0.000000 0.000000 0.750998 4.607455 0.444360 0.000000 0.000000 0.000000
-24.715449 80.523058 347.353613 -0.147552 0.106393 -37.441326 0.181834 0.005231 37.441455 -0.000000 0.000000 0.000000 -0.000000 0.000000 0.000000 0.000000 0.000000 0.000000 -0.232235 0.768572 -0.171799 0.283607 0.112883 0.110465 4.164280 3.024184 -0.369208 -3.903320 0.879877 0.872926 0.000000 0.000000 0.000000 0.000000 0.000000 0.000000 -0.000000 0.000000 0.000000 -0.000000 0.000000 0.000000 2.139174 -0.138083 10.948924 1.751970 3.216757 -9.072119 0.000000 0.000000 0.000000 0.000000 0.000000 0.000000 0.181834 0.005231 37.441455 -0.000000 0.000000 0.000000 -0.564031 0.252479 0.573998 0.000000 0.000000 0.000000 0.181834 0.005231 37.441455 -0.000000 0.000000 0.000000 1.001752 5.556671 0.459699 0.000000 0.000000 0.000000
-24.728301 80.529741 347.490097 -0.158176 0.137714 -37.592469 0.209345 -0.012626 37.592682 -0.000000 0.000000 0.000000 -0.000000 0.000000 0.000000 0.000000 0.000000 0.000000 -0.299943 0.940988 -0.206758 0.494792 0.084269 0.110426 4.743788 3.409396 -0.415423 -4.668946 0.612950 0.933530 0.000000 0.000000 0.000000 0.000000 0.000000 0.000000 -0.000000 0.000000 0.000000 -0.000000 0.000000 0.000000 0.605638 0.095453 13.614696 3.798903 3.233189 -11.030518 0.000000 0.000000 0.000000 0.000000 0.000000 0.000000 0.209345 -0.012626 37.592682 -0.000000 0.000000 0.000000 -0.603521 0.394845 0.619152 0.000000 0.000000 0.000000 0.209345 -0.012626 37.592682 -0.000000 0.000000 0.000000 1.258239 6.231584 0.414022 0.000000 0.000000 0.000000
-24.728295 80.539307 347.644839 -0.154026 0.175772 -37.834576 0.229463 -0.044344 37.834901 -0.000000 0.000000 0.000000 -0.000000 0.000000 0.000000 0.000000 0.000000 0.000000 -0.359430 1.134939 -0.249112 0.805149 0.022962 0.098793 5.376835 3.130121 -0.417384 -5.753371 -0.171028 0.865096 0.000000 0.000000 0.000000 0.000000 0.000000 0.000000 -0.231997 -1.345501 0.016840 0.232456 1.345422 -0.022294 -2.845336 0.422395 14.866108 6.079358 1.331220 -12.607243 0.000000 0.000000 0.000000 0.000000 0.000000 0.000000 0.229463 -0.044344 37.834901 -0.000000 0.000000 0.000000 -0.602205 0.570731 0.624814 0.000000 0.000000 0.000000 0.229463 -0.044344 37.834901 -0.000000 0.000000 0.000000 1.524450 6.795046 0.337858 0.000000 0.000000 0.000000
-24.716146 80.560600 347.782055 -0.138080 0.217190 -38.058357 0.242612 -0.085889 38.058800 -0.000000 0.000000 0.000000 -0.000000 0.000000 0.000000 0.000000 0.000000 0.000000 -0.455001 1.340579 -0.287253 1.176126 -0.119289 0.085659 5.774759 3.151213 -0.419226 -7.620368 -0.368050 1.071892 0.000000 0.000000 0.000000 0.000000 0.000000 0.000000 -0.188013 -2.258120 0.103362 -0.489634 1.353955 0.047627 -5.174442 1.392723 20.049885 7.996355 1.123496 -15.634624 0.000000 0.000000 0.000000 0.000000 0.000000 0.000000 0.242612 -0.085889 38.058800 -0.000000 0.000000 0.000000 -0.523901 0.912135 0.559993 0.000000 0.000000 0.000000 0.242612 -0.085889 38.058800 -0.000000 0.000000 0.000000 1.731437 6.617075 0.160362 0.000000 0.000000 0.000000
-24.698881 80.583732 347.897230 -0.114410 0.247513 -38.175341 0.242921 -0.123861 38.175850 -0.000000 0.000000 0.000000 -0.000000 0.000000 0.000000 0.000000 0.000000 0.000000 -0.543063 1.477312 -0.307466 1.514613 -0.231117 0.062273 5.863136 3.163585 -0.399491 -8.187963 -1.065668 1.013370 0.000000 0.000000 0.000000 0.000000 0.000000 0.000000 -0.064800 -3.409817 0.239755 -0.876643 2.330924 0.059255 -8.861807 1.436551 24.312646 13.526847 0.242617 -18.234616 0.000000 0.000000 0.000000 0.000000 0.000000 0.000000 0.242921 -0.123861 38.175850 -0.000000 0.000000 0.000000 -0.419156 1.249506 0.468501 0.000000 0.000000 0.000000 0.242921 -0.123861 38.175850 -0.000000 0.000000 0.000000 2.124371 6.309814 -0.169711 0.000000 0.000000 0.000000
